<svg width="5" height="6" viewBox="0 0 5 6" fill="none" xmlns="http://www.w3.org/2000/svg">
<path d="M1.04541 5.5957C0.926921 5.5957 0.833496 5.5638 0.765137 5.5C0.699056 5.4362 0.666016 5.34733 0.666016 5.2334C0.666016 5.16504 0.680827 5.08643 0.710449 4.99756L2.23145 0.895996C2.33171 0.611165 2.52995 0.46875 2.82617 0.46875C2.9834 0.46875 3.111 0.504069 3.20898 0.574707C3.30924 0.645345 3.38558 0.752441 3.43799 0.895996L4.94873 4.98047C4.98063 5.06934 4.99658 5.15137 4.99658 5.22656C4.99658 5.34049 4.96012 5.4305 4.88721 5.49658C4.81657 5.56266 4.72087 5.5957 4.6001 5.5957C4.48617 5.5957 4.39616 5.5695 4.33008 5.51709C4.26628 5.46696 4.21615 5.38037 4.17969 5.25732L3.80029 4.19775H1.84863L1.46924 5.25732C1.43278 5.38037 1.38151 5.46696 1.31543 5.51709C1.25163 5.5695 1.16162 5.5957 1.04541 5.5957ZM2.04688 3.56201H3.60889L2.83643 1.34033H2.81934L2.04688 3.56201Z" fill="#22283F" style="fill:#22283F;fill:color(display-p3 0.1333 0.1569 0.2471);fill-opacity:1;"/>
</svg>
