<svg width="27" height="26" viewBox="0 0 27 26" fill="none" xmlns="http://www.w3.org/2000/svg">
<path d="M26.6022 21.2396C27.1326 21.624 27.1326 22.3769 26.6022 22.7612L22.4094 25.7993C21.7387 26.2853 20.7673 25.8353 20.7673 25.0386V22.8009L6.23271 22.8009V25.0386C6.23271 25.8353 5.26126 26.2853 4.59055 25.7993L0.397796 22.7612C-0.132599 22.3769 -0.132599 21.624 0.397796 21.2396L4.59055 18.2015C5.26126 17.7155 6.23271 18.1656 6.23271 18.9623V20.8807L20.7673 20.8807V18.9623C20.7673 18.1656 21.7387 17.7155 22.4094 18.2015L26.6022 21.2396Z" fill="#363636" style="fill:#363636;fill:color(display-p3 0.2129 0.2129 0.2129);fill-opacity:1;"/>
<path fill-rule="evenodd" clip-rule="evenodd" d="M10.9094 1.31654C11.2778 0.30458 12.5 -4.90993e-06 13.3948 0C14.5 0 15.5117 0.30458 15.8801 1.31654L20.6685 14.4722C21.0462 15.5101 20.511 16.6579 19.4729 17.0357C18.4351 17.4133 17.2874 16.8782 16.9097 15.8402L15.7224 12.5784H11.0672L9.8799 15.8402C9.50221 16.8782 8.35451 17.4133 7.31666 17.0357C6.27858 16.6579 5.74342 15.5101 6.12111 14.4722L10.9094 1.31654ZM12.1589 9.57838H14.6306L13.3948 6.18324L12.1589 9.57838Z" fill="#363636" style="fill:#363636;fill:color(display-p3 0.2129 0.2129 0.2129);fill-opacity:1;"/>
</svg>
