<svg width="7" height="8" viewBox="0 0 7 8" fill="none" xmlns="http://www.w3.org/2000/svg">
<path d="M0.946289 7.57812C0.819336 7.57812 0.718424 7.54395 0.643555 7.47559C0.57194 7.40397 0.536133 7.30632 0.536133 7.18262C0.536133 7.10775 0.554036 7.01986 0.589844 6.91895L2.87988 0.810547C2.9873 0.514323 3.19238 0.366211 3.49512 0.366211C3.65137 0.366211 3.77995 0.403646 3.88086 0.478516C3.98177 0.553385 4.06152 0.66569 4.12012 0.81543L6.41016 6.91406C6.44596 7.01497 6.46387 7.10286 6.46387 7.17773C6.46387 7.30143 6.4248 7.39909 6.34668 7.4707C6.27181 7.54232 6.16927 7.57812 6.03906 7.57812C5.91211 7.57812 5.81283 7.55046 5.74121 7.49512C5.6696 7.43978 5.611 7.34375 5.56543 7.20703L4.93555 5.4834H2.05469L1.4248 7.20703C1.37923 7.34375 1.32064 7.43978 1.24902 7.49512C1.17741 7.55046 1.0765 7.57812 0.946289 7.57812ZM2.29395 4.74121H4.69141L3.50488 1.45508H3.48047L2.29395 4.74121Z" fill="#22283F" style="fill:#22283F;fill:color(display-p3 0.1333 0.1569 0.2471);fill-opacity:1;"/>
</svg>
