<svg width="9" height="11" viewBox="0 0 9 11" fill="none" xmlns="http://www.w3.org/2000/svg">
<path d="M0.846191 10.1016C0.681152 10.1016 0.549967 10.0571 0.452637 9.96826C0.359538 9.87516 0.312988 9.74821 0.312988 9.5874C0.312988 9.49007 0.336263 9.37581 0.382812 9.24463L3.35986 1.30371C3.49951 0.91862 3.76611 0.726074 4.15967 0.726074C4.36279 0.726074 4.52995 0.77474 4.66113 0.87207C4.79232 0.969401 4.896 1.1154 4.97217 1.31006L7.94922 9.23828C7.99577 9.36947 8.01904 9.48372 8.01904 9.58105C8.01904 9.74186 7.96826 9.86882 7.8667 9.96191C7.76937 10.055 7.63607 10.1016 7.4668 10.1016C7.30176 10.1016 7.17269 10.0656 7.07959 9.99365C6.98649 9.92171 6.91032 9.79688 6.85107 9.61914L6.03223 7.37842H2.28711L1.46826 9.61914C1.40902 9.79688 1.33285 9.92171 1.23975 9.99365C1.14665 10.0656 1.01546 10.1016 0.846191 10.1016ZM2.59814 6.41357H5.71484L4.17236 2.1416H4.14062L2.59814 6.41357Z" fill="white" style="fill:white;fill-opacity:1;"/>
</svg>
