<svg width="12" height="21" viewBox="0 0 12 21" fill="none" xmlns="http://www.w3.org/2000/svg">
<path d="M5.47363 14.6592C5.10124 14.6592 4.82194 14.5518 4.63574 14.3369C4.44954 14.1149 4.35645 13.832 4.35645 13.4883C4.35645 13.3737 4.35645 13.2627 4.35645 13.1553C4.35645 13.0407 4.35645 12.9261 4.35645 12.8115C4.35645 12.1813 4.48177 11.6156 4.73242 11.1143C4.98307 10.6058 5.32682 10.1403 5.76367 9.71777C6.20768 9.29525 6.71257 8.88704 7.27832 8.49316C7.73665 8.1709 8.14128 7.85221 8.49219 7.53711C8.8431 7.21484 9.11523 6.86393 9.30859 6.48438C9.50911 6.09766 9.60938 5.64648 9.60938 5.13086C9.60938 4.50781 9.44108 3.96712 9.10449 3.50879C8.77507 3.05046 8.32747 2.69954 7.76172 2.45605C7.20312 2.2054 6.57292 2.08008 5.87109 2.08008C5.29818 2.08008 4.76823 2.17318 4.28125 2.35938C3.80143 2.54557 3.38607 2.84635 3.03516 3.26172C2.69141 3.66992 2.42643 4.21419 2.24023 4.89453C2.16146 5.15951 2.02897 5.36719 1.84277 5.51758C1.66374 5.66797 1.43815 5.74316 1.16602 5.74316C0.836589 5.74316 0.585938 5.64648 0.414062 5.45312C0.242188 5.25977 0.15625 5.00911 0.15625 4.70117C0.15625 4.49349 0.181315 4.27148 0.231445 4.03516C0.281576 3.79167 0.363932 3.5446 0.478516 3.29395C0.779297 2.60645 1.2054 2.02279 1.75684 1.54297C2.30827 1.06315 2.94206 0.697917 3.6582 0.447266C4.37435 0.196615 5.13704 0.0712891 5.94629 0.0712891C7.03483 0.0712891 8.02311 0.27181 8.91113 0.672852C9.80632 1.06673 10.5153 1.64323 11.0381 2.40234C11.568 3.1543 11.833 4.06738 11.833 5.1416C11.833 6.18001 11.5609 7.07878 11.0166 7.83789C10.4723 8.58984 9.73828 9.27734 8.81445 9.90039C8.24154 10.2943 7.79395 10.6416 7.47168 10.9424C7.14941 11.2432 6.92025 11.5583 6.78418 11.8877C6.64811 12.2171 6.5765 12.6182 6.56934 13.0908C6.56934 13.1481 6.56934 13.209 6.56934 13.2734C6.56934 13.3307 6.56934 13.3916 6.56934 13.4561C6.56934 13.7998 6.47982 14.0863 6.30078 14.3154C6.12174 14.5446 5.84603 14.6592 5.47363 14.6592ZM5.47363 20.5352C5.19434 20.5352 4.9401 20.4671 4.71094 20.3311C4.48177 20.195 4.29557 20.0088 4.15234 19.7725C4.01628 19.5433 3.94824 19.2891 3.94824 19.0098C3.94824 18.7305 4.01628 18.4727 4.15234 18.2363C4.29557 18.0072 4.48177 17.8245 4.71094 17.6885C4.9401 17.5524 5.19434 17.4844 5.47363 17.4844C5.76009 17.4844 6.0179 17.5524 6.24707 17.6885C6.4834 17.8245 6.6696 18.0072 6.80566 18.2363C6.94173 18.4727 7.00977 18.7305 7.00977 19.0098C7.00977 19.2891 6.94173 19.5433 6.80566 19.7725C6.6696 20.0088 6.4834 20.195 6.24707 20.3311C6.0179 20.4671 5.76009 20.5352 5.47363 20.5352Z" fill="#22283F" fill-opacity="0.4" style="fill:#22283F;fill:color(display-p3 0.1333 0.1569 0.2471);fill-opacity:0.4;"/>
</svg>
